<svg xmlns="http://www.w3.org/2000/svg" viewBox="0 0 64 64"><title>Artboard-7</title><g id="File_Download" data-name="File Download"><path d="M42,52H37V37a1,1,0,0,0-2,0V53a1,1,0,0,0,1,1h3.586L32,61.586,24.414,54H28a1,1,0,0,0,1-1V37a1,1,0,0,0-2,0V52H22a1,1,0,0,0-.707,1.707l10,10a1,1,0,0,0,1.414,0l10-10A1,1,0,0,0,42,52Z" style="fill:#28282b"/><path d="M36,34a1,1,0,0,0,1-1V28a1,1,0,0,0-2,0v5A1,1,0,0,0,36,34Z" style="fill:#28282b"/><path d="M33,33V24a1,1,0,0,0-2,0v9a1,1,0,0,0,2,0Z" style="fill:#28282b"/><path d="M28,34a1,1,0,0,0,1-1V28a1,1,0,0,0-2,0v5A1,1,0,0,0,28,34Z" style="fill:#28282b"/><path d="M50.707,9.293l-9-9A1.091,1.091,0,0,0,41,0H14a1,1,0,0,0-1,1V47a1,1,0,0,0,1,1H24a1,1,0,0,0,0-2H15V2H40v8a1,1,0,0,0,1,1h8V46H40a1,1,0,0,0,0,2H50a1,1,0,0,0,1-1V10A1.092,1.092,0,0,0,50.707,9.293ZM42,9V3.414L47.586,9Z" style="fill:#28282b"/></g></svg>